<svg width="94" height="301" viewBox="0 0 94 301" fill="none" xmlns="http://www.w3.org/2000/svg">
<path d="M92.0639 237.159V127.4C94.0188 119.86 93.2882 112.04 93.1812 111.202C91.8406 100.701 87.9679 100.31 86.1991 101.427C83.127 103.661 81.4513 124.142 84.2441 127.4C84.0579 159.239 83.7972 222.916 84.2441 222.916C88.4334 284.917 60.505 290.223 59.3878 290.223C19.8412 299.607 8.65122 269.184 7.99956 252.799L16.9366 255.592C12.1888 246.096 2.69301 227.217 2.69301 227.663C-7.91978 293.295 34.8107 298.602 35.3692 298.602C84.9701 306.645 93.8327 260.991 92.0639 237.159Z" stroke="white"/>
<path d="M84.5234 105.058C86.106 107.85 88.0424 115.894 83.127 124.607" stroke="white"/>
<path d="M84 1C85.1667 23.8333 84.5 45.6 84.5 106" stroke="white"/>
</svg>
