<svg width="1391" height="6917" viewBox="0 0 1391 6917" fill="none" xmlns="http://www.w3.org/2000/svg">
<path d="M378.577 1C258.418 31.2469 166.218 62.1819 129.577 91.2586C9.60558 186.463 -4.7547 289.59 2.57688 329.259C18.5647 415.763 181.828 419.41 451.577 461.259C789.996 513.761 1133.15 577.03 1183.58 585.259C1254.06 596.759 1373.58 619.755 1373.58 686.259C1373.58 752.762 1412.99 866.754 1029.58 959.259C646.169 1051.76 173.566 1263.76 129.577 1334.26C85.5875 1404.76 -4.62555 1562.53 99.5769 1718.26C183.557 1843.76 823.32 1870.59 1143.58 1863.26C1243.55 1861.59 1425.56 1900.65 1351.58 2070.26C1259.1 2282.27 297.557 2325.75 213.577 2480.26C129.597 2634.77 -14.4095 2578.24 42.5769 2869.26C88.166 3102.07 734.153 3174.92 1051.58 3182.26C1204.04 3182.26 1448.36 3279.25 1377.58 3459.26C1289.1 3684.27 412.049 3676.25 297.577 3817.26C183.104 3958.27 39.5278 4050.53 68.5769 4297.26C96.0703 4530.77 1062.15 4505 1174.58 4513.26C1297.05 4522.26 1391.81 4624.83 1333.58 4685.26C1266.59 4754.76 333.055 4742.25 240.577 4945.26C148.668 5147.02 231.168 5347.25 610.577 5466.26C989.986 5585.26 1139.58 5544.25 1139.58 5712.26C1139.58 5880.27 984.476 6083.26 561.577 6114.26C138.678 6145.26 13.9458 6312.19 55.5769 6400.26C128.847 6555.27 820.133 6594.26 1055.58 6594.26C1273.79 6594.26 1307.12 6729.23 1317.58 6916.26" stroke="#8E8E8E" stroke-linecap="round" stroke-linejoin="round"/>
</svg>
