<svg width="98" height="26" viewBox="0 0 98 26" fill="none" xmlns="http://www.w3.org/2000/svg">
<path d="M0.884943 11H3.03764V6.79403H7.17898V5.01918H3.03764V2.59304H7.62642V0.818182H0.884943V11ZM11.6471 0.818182H9.4944V11H11.6471V0.818182ZM19.3617 3.74645H21.4249C21.395 1.93182 19.9036 0.678977 17.6365 0.678977C15.4043 0.678977 13.7686 1.91193 13.7786 3.76136C13.7736 5.26278 14.8325 6.12287 16.5527 6.53551L17.6614 6.81392C18.77 7.08239 19.3865 7.40057 19.3915 8.08665C19.3865 8.83239 18.6806 9.33949 17.5868 9.33949C16.4682 9.33949 15.6628 8.82244 15.5932 7.80327H13.5101C13.5648 10.0057 15.1408 11.1442 17.6117 11.1442C20.0975 11.1442 21.5591 9.95597 21.5641 8.09162C21.5591 6.39631 20.2814 5.49645 18.5115 5.09872L17.5967 4.87997C16.7118 4.67614 15.971 4.34801 15.986 3.61719C15.986 2.96094 16.5676 2.47869 17.6216 2.47869C18.6507 2.47869 19.2821 2.94602 19.3617 3.74645ZM23.4321 11H25.5848V6.79403H29.9548V11H32.1025V0.818182H29.9548V5.01918H25.5848V0.818182H23.4321V11ZM39.7971 0.818182H37.4058L40.9207 11H43.6948L47.2048 0.818182H44.8184L42.3525 8.55398H42.258L39.7971 0.818182ZM51.003 0.818182H48.8503V11H51.003V0.818182ZM56.8035 11C59.9057 11 61.785 9.08097 61.785 5.89915C61.785 2.72727 59.9057 0.818182 56.8333 0.818182H53.1941V11H56.8035ZM55.3468 9.15554V2.66264H56.7189C58.628 2.66264 59.6373 3.63707 59.6373 5.89915C59.6373 8.17116 58.628 9.15554 56.714 9.15554H55.3468ZM63.7996 11H70.6803V9.22514H65.9523V6.79403H70.3074V5.01918H65.9523V2.59304H70.6604V0.818182H63.7996V11ZM82.1484 5.90909C82.1484 2.57812 80.0802 0.678977 77.3807 0.678977C74.6662 0.678977 72.6129 2.57812 72.6129 5.90909C72.6129 9.22514 74.6662 11.1392 77.3807 11.1392C80.0802 11.1392 82.1484 9.24006 82.1484 5.90909ZM79.9659 5.90909C79.9659 8.06676 78.9418 9.23509 77.3807 9.23509C75.8146 9.23509 74.7954 8.06676 74.7954 5.90909C74.7954 3.75142 75.8146 2.5831 77.3807 2.5831C78.9418 2.5831 79.9659 3.75142 79.9659 5.90909ZM0.884943 25H3.03764V21.6989H4.8473C7.18892 21.6989 8.55114 20.3018 8.55114 18.2685C8.55114 16.245 7.21378 14.8182 4.90199 14.8182H0.884943V25ZM3.03764 19.9737V16.5781H4.48935C5.73224 16.5781 6.33381 17.2543 6.33381 18.2685C6.33381 19.2777 5.73224 19.9737 4.49929 19.9737H3.03764ZM10.3694 25H12.5221V21.3906H14.0931L16.0221 25H18.3985L16.2359 21.0426C17.3943 20.5455 18.0356 19.5362 18.0356 18.1442C18.0356 16.1207 16.6982 14.8182 14.3864 14.8182H10.3694V25ZM12.5221 19.6605V16.5781H13.9738C15.2167 16.5781 15.8183 17.13 15.8183 18.1442C15.8183 19.1534 15.2167 19.6605 13.9837 19.6605H12.5221ZM29.3334 19.9091C29.3334 16.5781 27.2652 14.679 24.5657 14.679C21.8512 14.679 19.7979 16.5781 19.7979 19.9091C19.7979 23.2251 21.8512 25.1392 24.5657 25.1392C27.2652 25.1392 29.3334 23.2401 29.3334 19.9091ZM27.1509 19.9091C27.1509 22.0668 26.1268 23.2351 24.5657 23.2351C22.9996 23.2351 21.9804 22.0668 21.9804 19.9091C21.9804 17.7514 22.9996 16.5831 24.5657 16.5831C26.1268 16.5831 27.1509 17.7514 27.1509 19.9091ZM34.9574 25C38.0597 25 39.939 23.081 39.939 19.8991C39.939 16.7273 38.0597 14.8182 34.9873 14.8182H31.3481V25H34.9574ZM33.5008 23.1555V16.6626H34.8729C36.782 16.6626 37.7913 17.6371 37.7913 19.8991C37.7913 22.1712 36.782 23.1555 34.868 23.1555H33.5008ZM48.2427 14.8182V21.2464C48.2427 22.4098 47.4273 23.25 46.1745 23.25C44.9266 23.25 44.1063 22.4098 44.1063 21.2464V14.8182H41.9536V21.4304C41.9536 23.6577 43.634 25.1442 46.1745 25.1442C48.705 25.1442 50.3954 23.6577 50.3954 21.4304V14.8182H48.2427ZM61.5702 18.3828C61.2868 16.0312 59.507 14.679 57.1504 14.679C54.4608 14.679 52.4075 16.5781 52.4075 19.9091C52.4075 23.2301 54.426 25.1392 57.1504 25.1392C59.7605 25.1392 61.3365 23.4041 61.5702 21.5298L59.3926 21.5199C59.1888 22.6087 58.3337 23.2351 57.1852 23.2351C55.6391 23.2351 54.5901 22.0866 54.5901 19.9091C54.5901 17.7912 55.6241 16.5831 57.2001 16.5831C58.3784 16.5831 59.2285 17.2642 59.3926 18.3828H61.5702ZM63.1461 16.593H66.2633V25H68.3911V16.593H71.5083V14.8182H63.1461V16.593ZM75.4581 14.8182H73.3054V25H75.4581V14.8182ZM87.0058 19.9091C87.0058 16.5781 84.9376 14.679 82.238 14.679C79.5235 14.679 77.4703 16.5781 77.4703 19.9091C77.4703 23.2251 79.5235 25.1392 82.238 25.1392C84.9376 25.1392 87.0058 23.2401 87.0058 19.9091ZM84.8232 19.9091C84.8232 22.0668 83.7991 23.2351 82.238 23.2351C80.672 23.2351 79.6528 22.0668 79.6528 19.9091C79.6528 17.7514 80.672 16.5831 82.238 16.5831C83.7991 16.5831 84.8232 17.7514 84.8232 19.9091ZM97.5367 14.8182H95.394V21.2216H95.3045L90.9096 14.8182H89.0204V25H91.1731V18.5916H91.2477L95.6774 25H97.5367V14.8182Z" fill="white"/>
</svg>
