<svg width="1362" height="6832" viewBox="0 0 1362 6832" fill="none" xmlns="http://www.w3.org/2000/svg">
<path d="M1109.5 6532C1099.04 6344.97 1244.79 6260.26 1026.58 6260.26C791.133 6260.26 99.8477 6221.27 26.5772 6066.26C-15.0538 5978.19 109.678 5811.26 532.577 5780.26C955.476 5749.26 1110.58 5546.27 1110.58 5378.26C1110.58 5210.25 960.986 5251.26 581.577 5132.26C202.168 5013.25 119.669 4813.02 211.577 4611.26C304.055 4408.25 1237.59 4420.76 1304.58 4351.26C1362.82 4290.83 1268.05 4188.26 1145.58 4179.26C1033.15 4171 67.0706 4196.77 39.5772 3963.26C10.5281 3716.53 154.105 3624.27 268.577 3483.26C383.05 3342.25 1260.1 3350.27 1348.58 3125.26C1419.36 2945.25 1175.04 2848.26 1022.58 2848.26C705.153 2840.93 59.1663 2768.07 13.5772 2535.26C-43.4092 2244.24 100.597 2300.77 184.577 2146.26C268.557 1991.75 1230.1 1948.27 1322.58 1736.26C1396.56 1566.65 1214.55 1527.59 1114.58 1529.26C794.32 1536.59 154.557 1509.76 70.5772 1384.26C-33.6252 1228.53 56.5878 1070.76 100.577 1000.26C144.567 929.755 617.169 717.763 1000.58 625.259C1383.99 532.754 1344.58 418.762 1344.58 352.259C1344.58 285.756 1225.79 256.667 1154.58 251.259C1059 244 592.5 342 306.5 129C277.833 102.333 248 39.5 358 1.5" stroke="#8E8E8E" stroke-linecap="square" stroke-linejoin="round"/>
<path d="M1117.06 6768.16V6658.4C1119.02 6650.86 1118.29 6643.04 1118.18 6642.2C1116.84 6631.7 1112.97 6631.31 1111.2 6632.43C1108.13 6634.66 1106.45 6655.14 1109.24 6658.4C1109.06 6690.24 1108.8 6753.92 1109.24 6753.92C1113.43 6815.92 1085.5 6821.22 1084.39 6821.22C1044.84 6830.61 1033.65 6800.18 1033 6783.8L1041.94 6786.59C1037.19 6777.1 1027.69 6758.22 1027.69 6758.66C1017.08 6824.3 1059.81 6829.6 1060.37 6829.6C1109.97 6837.64 1118.83 6791.99 1117.06 6768.16Z" stroke="white"/>
<path d="M1109.52 6636.06C1111.11 6638.85 1113.04 6646.89 1108.13 6655.61" stroke="white"/>
<path d="M1109.5 6532C1110.67 6554.83 1109.5 6576.6 1109.5 6637" stroke="white"/>
</svg>
