<svg width="74" height="74" viewBox="0 0 74 74" fill="none" xmlns="http://www.w3.org/2000/svg">
<path d="M37 0L41.1736 3.96258L46.2015 1.16242L49.2585 6.03844L54.8249 4.57665L56.5732 10.0597L62.3282 10.0282L62.6581 15.7738L68.2401 17.1744L67.1307 22.8216L72.1891 25.5664L69.7102 30.7602L73.927 34.6768L70.2343 39.0909L73.3446 43.9331L68.6702 47.2903L70.4786 52.7538L65.1161 54.843L65.509 60.5847L59.7954 61.2747L58.7481 66.9336L53.0424 66.181L50.6206 71.4017L45.2814 69.2538L41.6373 73.7082L37 70.3L32.3627 73.7082L28.7186 69.2538L23.3794 71.4017L20.9576 66.181L15.2519 66.9336L14.2046 61.2747L8.49101 60.5847L8.88388 54.843L3.5214 52.7538L5.32982 47.2903L0.655373 43.9331L3.76571 39.0909L0.0730095 34.6768L4.28984 30.7602L1.81091 25.5664L6.86926 22.8216L5.75987 17.1744L11.3419 15.7738L11.6718 10.0282L17.4268 10.0597L19.1751 4.57665L24.7415 6.03844L27.7985 1.16242L32.8264 3.96258L37 0Z" fill="white"/>
<path d="M46 38L31.75 48.3923L31.75 27.6077L46 38Z" fill="#202020"/>
</svg>
