<svg width="104" height="104" viewBox="0 0 104 104" fill="none" xmlns="http://www.w3.org/2000/svg">
<path d="M52 0L57.8656 5.56903L64.9319 1.63367L69.2282 8.48646L77.0512 6.43205L79.5083 14.138L87.5965 14.0936L88.06 22.1686L95.9051 24.137L94.3459 32.0735L101.455 35.9311L97.971 43.2306L103.897 48.7349L98.7076 54.9386L103.079 61.7438L96.5094 66.462L99.051 74.1405L91.5145 77.0767L92.0667 85.146L84.0368 86.1157L82.5648 94.0689L74.5461 93.0112L71.1425 100.348L63.6387 97.3297L58.5173 103.59L52 98.8L45.4827 103.59L40.3613 97.3297L32.8575 100.348L29.4539 93.0112L21.4352 94.0689L19.9632 86.1157L11.9333 85.146L12.4855 77.0767L4.94899 74.1405L7.49055 66.462L0.921062 61.7438L5.29235 54.9386L0.102612 48.7349L6.02896 43.2306L2.54506 35.9311L9.65409 32.0735L8.09495 24.137L15.94 22.1686L16.4035 14.0936L24.4917 14.138L26.9488 6.43205L34.7718 8.48646L39.0681 1.63367L46.1344 5.56903L52 0Z" fill="#E25043"/>
<path d="M42 33C48.8749 33 54.5062 34.3906 55 44C55.4938 53.6094 55.2057 65.3201 55 70" stroke="white" stroke-width="2" stroke-linecap="square" stroke-linejoin="round"/>
<path d="M48 66L55 71L61 66" stroke="white" stroke-width="2" stroke-linecap="square" stroke-linejoin="round"/>
</svg>
