<svg width="299" height="300" viewBox="0 0 299 300" fill="none" xmlns="http://www.w3.org/2000/svg">
<path d="M297.363 150.344L297.689 150L297.363 149.656L281.765 133.228L292.787 113.437L293.018 113.022L292.616 112.77L273.423 100.737L279.177 78.8275L279.298 78.3683L278.845 78.2241L257.263 71.3423L257.387 48.6898L257.39 48.2151L256.916 48.1878L234.3 46.8895L228.787 24.9178L228.672 24.4573L228.206 24.5488L205.978 28.9156L195.174 9.00516L194.948 8.58791L194.519 8.79239L174.075 18.5498L158.659 1.95176L158.336 1.60393L157.972 1.90853L140.597 16.4435L121.538 4.20079L121.138 3.94423L120.861 4.32981L107.647 22.7291L86.1418 15.6109L85.6911 15.4617L85.5188 15.9041L77.2954 37.0116L54.6954 35.4652L54.2218 35.4328L54.1649 35.9041L51.449 58.3935L29.1745 62.5161L28.7077 62.6025L28.7698 63.0732L31.7322 85.5315L11.1826 95.064L10.752 95.2637L10.9292 95.7042L19.3837 116.72L1.85043 131.064L1.483 131.364L1.76412 131.747L15.1795 150L1.76412 168.253L1.48299 168.636L1.85043 168.936L19.3837 183.28L10.9292 204.296L10.752 204.736L11.1826 204.936L31.7322 214.469L28.7698 236.927L28.7077 237.397L29.1745 237.484L51.449 241.606L54.1648 264.096L54.2218 264.567L54.6954 264.535L77.2954 262.988L85.5188 284.096L85.6911 284.538L86.1418 284.389L107.647 277.271L120.861 295.67L121.138 296.056L121.538 295.799L140.597 283.556L157.972 298.091L158.336 298.396L158.659 298.048L174.075 281.45L194.519 291.208L194.948 291.412L195.174 290.995L205.978 271.084L228.206 275.451L228.672 275.543L228.787 275.082L234.3 253.11L256.916 251.812L257.39 251.785L257.387 251.31L257.263 228.658L278.845 221.776L279.298 221.632L279.177 221.173L273.423 199.263L292.616 187.23L293.018 186.978L292.787 186.563L281.765 166.772L297.363 150.344Z" fill="white" stroke="#E25043"/>
</svg>
